<svg xmlns="http://www.w3.org/2000/svg" height="228" viewBox="-16 0 171 171.25" width="228"><path d="M120.219 114.023c5.96 4.329 8.777 17.102 9.363 21.668l4.445 33.532 4.645-.61-4.442-33.57c-.093-.742-2.445-18.426-11.238-24.77a47.585 47.585 0 0 0-9.414-4.875 2.302 2.302 0 0 0-.652-.355l-1.934-.684a144.166 144.166 0 0 0-8.902-3.097l-1.809-.633a2.24 2.24 0 0 0-.554-.125c-4.899-1.55-9.2-2.695-11.504-3.297v-5.125a26.61 26.61 0 0 0 11.144-21.668V66.47a7.402 7.402 0 0 0 2.43.445 7.077 7.077 0 0 0 7.078-7.078v-6.313a6.972 6.972 0 0 0-1.77-4.64 7.265 7.265 0 0 0 1.106-4.016v-2.695a8.037 8.037 0 0 0-1.738-5.445 4.896 4.896 0 0 0-2.352-1.364c-.555-6.394-3.59-25.168-19.781-32.504h-.14A35.278 35.278 0 0 0 70.87.008h-1.348A37.227 37.227 0 0 0 56.63 2.035h-.11C38.59 8.63 35.36 28.665 34.853 35.301a4.842 4.842 0 0 0-2.356 1.363 7.943 7.943 0 0 0-1.875 5.45v2.773a7.202 7.202 0 0 0 1.098 4.004 7.06 7.06 0 0 0-1.766 4.652v6.324a7.076 7.076 0 0 0 7.078 7.074 6.86 6.86 0 0 0 2.426-.445v3.961a26.653 26.653 0 0 0 10.95 21.488v5.262a227.15 227.15 0 0 0-24.43 7.863h-.106a50.012 50.012 0 0 0-10.066 5.14c-8.793 6.407-11.14 24.071-11.239 24.774l-4.441 33.59 4.645.602 4.44-33.59c.595-4.555 3.403-17.313 9.29-21.676a35.162 35.162 0 0 1 5.93-3.176v20.121c-3.422 1.258-7.739 4.778-7.739 12.208v25.867a2.32 2.32 0 0 0 2.32 2.32h100.884a2.317 2.317 0 0 0 2.316-2.32v-25.825c0-7.43-4.344-10.945-7.738-12.199v-20.12a34.05 34.05 0 0 1 5.746 3.237zm-15.946-60.5v6.332a2.43 2.43 0 0 1-2.613 2.23 2.44 2.44 0 0 1-2.23-2.23v-6.332a2.441 2.441 0 0 1 2.23-2.62 2.43 2.43 0 0 1 2.613 2.23 1.59 1.59 0 0 1 0 .39zM72.695 4.762c2.825.215 5.61.828 8.27 1.804V18.32a11.39 11.39 0 0 1-8.27 4.844zm-12.91 1.16a33.226 33.226 0 0 1 8.27-1.27v18.575a11.38 11.38 0 0 1-8.27-4.848zM39.398 59.836a2.431 2.431 0 0 1-2.613 2.23 2.428 2.428 0 0 1-2.23-2.23v-6.313a2.436 2.436 0 0 1 2.23-2.62 2.434 2.434 0 0 1 2.613 2.62zm-2.43-13.402c-.44 0-.87.043-1.296.12a2.412 2.412 0 0 1-.469-1.687v-2.812a3.722 3.722 0 0 1 .543-2.094.422.422 0 0 1 .328-.086h.895a2.328 2.328 0 0 0 2.324-2.328c0-1.082.305-21.676 15.836-29.758v11.152c0 .344.078.68.226.989.16.324 3.946 8.05 15 8.05 11.051 0 14.852-7.738 15.004-8.05.141-.309.223-.645.211-.989V8.906c13.614 8.688 13.938 27.602 13.938 28.64a2.327 2.327 0 0 0 2.32 2.329h.899c.23 0 .28 0 .324.086.394.644.578 1.387.543 2.144v2.762a2.313 2.313 0 0 1-.496 1.688 6.917 6.917 0 0 0-6.266 1.925H41.996a7.004 7.004 0 0 0-5.012-2.03zm7.075 24.023V53.125h50.773v17.332c-.02 12.172-9.89 22.023-22.058 22.012H66.07c-12.156-.004-22.011-9.852-22.027-22.012zm39.594 24.32v3.434l-14.239 18.207L55 98.211V94.68a26.334 26.334 0 0 0 11.07 2.449h6.688a26.37 26.37 0 0 0 10.879-2.352zm-42.055 9.77a267.89 267.89 0 0 1 10.215-2.899l17.633 22.293 17.433-22.293c2.004.528 5.88 1.547 10.403 2.957V131.2H41.53zm75.992 38.558v23.543H21.332v-23.543c0-7.007 5.188-8.015 5.742-8.113a2.32 2.32 0 0 0 2-2.3v-23.844a144.966 144.966 0 0 1 7.895-2.785v27.46a2.326 2.326 0 0 0 2.324 2.329H99.66a2.328 2.328 0 0 0 2.324-2.329V106.11l7.817 2.739v23.843c0 1.16.863 2.153 2.011 2.301.239.031 5.762.86 5.762 8.113zm0 0" style="stroke:none;fill-rule:nonzero;fill:#000;fill-opacity:1"/><path d="M26.707 140.18h12.535v4.164H26.707zm72.879 0h12.543v4.164H99.586zm0 0" style="stroke:none;fill-rule:nonzero;fill:#000;fill-opacity:1"/></svg>