<svg width="719" height="54" viewBox="0 0 719 54" fill="none" xmlns="http://www.w3.org/2000/svg">
<path d="M24.3904 1L2 53M149.777 1L127.386 53M166.196 1L143.806 53M184.109 1L161.718 53M118.43 1L96.0397 53M134.85 1L112.459 53M103.503 1L81.1128 53M72.1566 1L49.7662 53M87.0835 1L64.6931 53M40.8101 1L18.4197 53M55.737 1L33.3466 53M202.021 1L179.63 53M327.407 1L305.017 53M343.827 1L321.436 53M361.739 1L339.349 53M296.061 1L273.67 53M312.48 1L290.09 53M281.134 1L258.743 53M249.787 1L227.397 53M264.714 1L242.324 53M218.44 1L196.05 53M233.367 1L210.977 53M379.651 1L357.261 53M505.038 1L482.647 53M521.457 1L499.067 53M539.37 1L516.979 53M473.691 1L451.301 53M490.111 1L467.72 53M458.764 1L436.374 53M427.417 1L405.027 53M396.071 1L373.681 53M410.998 1L388.608 53M557.282 1L534.891 53M682.668 1L660.278 53M699.088 1L676.697 53M717 1L694.61 53M651.322 1L628.931 53M667.741 1L645.351 53M636.395 1L614.004 53M605.048 1L582.658 53M619.975 1L597.585 53M573.701 1L551.311 53M588.628 1L566.238 53M442.344 1L419.954 53" stroke="#FF0000" stroke-width="4"/>
</svg>
