<svg id="Layer_1" enable-background="new 0 0 512 512" height="512" viewBox="0 0 512 512" width="512" xmlns="http://www.w3.org/2000/svg"><g><path d="m368.649 74.354h103.807c6.747 0 12.869-2.778 17.32-7.229 4.479-4.451 7.229-10.602 7.229-17.349 0-6.746-2.75-12.898-7.229-17.348-4.451-4.451-10.573-7.229-17.32-7.229-53.49 0-106.953 0-160.414 0v198.059h49.124v-49.975c0-4.139 3.345-7.512 7.483-7.512 4.167 0 7.512 3.374 7.512 7.512v177.791c0 6.18-2.522 11.792-6.604 15.846-4.054 4.082-9.666 6.605-15.846 6.605h-67.182v19.899h35.462c14.91 0 28.432 6.095 38.268 15.932 9.809 9.808 15.902 23.358 15.902 38.268 0 14.911-6.094 28.432-15.902 38.268-9.836 9.809-23.357 15.903-38.268 15.903h-84.161c-4.139 0-7.512-3.373-7.512-7.512s3.373-7.484 7.512-7.484h84.161c10.744 0 20.552-4.422 27.666-11.509 7.087-7.115 11.509-16.923 11.509-27.667 0-10.772-4.422-20.58-11.509-27.666-7.114-7.115-16.922-11.509-27.666-11.509-67.437 0-134.846 0-202.283 0-10.771 0-20.551 4.394-27.666 11.509-7.114 7.086-11.509 16.894-11.509 27.666 0 10.744 4.395 20.552 11.509 27.667 7.115 7.086 16.895 11.509 27.666 11.509h84.162c4.139 0 7.483 3.345 7.483 7.484s-3.345 7.512-7.483 7.512h-84.162c-14.91 0-28.46-6.094-38.268-15.903-9.808-9.836-15.902-23.357-15.902-38.268 0-14.91 6.095-28.46 15.902-38.268 9.808-9.837 23.357-15.932 38.268-15.932h35.463v-19.899h-132.721c-6.179 0-11.792-2.523-15.846-6.605-4.081-4.053-6.604-9.666-6.604-15.845v-17.376-87.989c0-6.18 2.523-11.793 6.604-15.875 4.054-4.054 9.667-6.577 15.846-6.577h152.479l-32.74-139.721c-1.078-4.677 2.494-9.184 7.285-9.184h147.544v-56.636c0-4.139 3.374-7.512 7.513-7.512h167.926c10.886 0 20.778 4.45 27.95 11.622 7.143 7.172 11.593 17.065 11.593 27.95s-4.45 20.779-11.594 27.95c-5.499 5.471-12.558 9.383-20.466 10.885v49.89c2.381-.142 4.79.113 7.058.737 5.556 1.474 10.545 5.074 13.635 10.432 2.977 5.103 3.771 11.339 2.239 17.037-1.53 5.754-5.272 10.63-10.432 13.635l-12.5 7.2v15.789c2.381-.142 4.79.113 7.058.737 5.556 1.474 10.545 5.074 13.635 10.431 3.09 5.358 3.741 11.481 2.239 17.037-1.474 5.528-5.074 10.517-10.46 13.635l-12.472 7.2v15.789c2.381-.113 4.79.113 7.058.737 5.585 1.502 11.367 5.669 13.918 10.942 2.863 5.244 3.401 11.169 1.956 16.526-1.502 5.613-5.754 10.914-10.856 13.861l-12.076 6.973v15.789c2.381-.113 4.79.142 7.058.737 5.585 1.502 11.367 5.669 13.918 10.97 2.863 5.216 3.401 11.141 1.956 16.498-1.53 5.754-5.272 10.659-10.432 13.635l-12.5 7.229v37.163c0 .766-.143 1.531-.369 2.296l-14.968 46.205c-.68 2.239-2.438 4.11-4.848 4.904-3.911 1.247-8.135-.907-9.383-4.847l-14.768-45.667c-.369-.879-.596-1.871-.596-2.892v-14.03c-2.381.142-4.762-.114-7.059-.709-5.414-1.474-11.764-5.953-14.031-11.226-2.75-5.159-3.26-10.97-1.842-16.271 1.474-5.499 5.896-10.999 10.913-13.891l12.019-6.945v-15.788c-2.381.142-4.762-.113-7.059-.737-5.754-1.531-10.629-5.272-13.635-10.432-3.09-5.357-3.713-11.481-2.238-17.037 1.559-5.783 5.271-10.63 10.459-13.635l12.473-7.2v-15.789c-2.381.142-4.762-.113-7.059-.737-5.641-1.502-10.8-5.329-13.635-10.46-3.09-5.358-3.713-11.48-2.238-17.008 1.502-5.556 5.102-10.544 10.459-13.635l12.473-7.2v-15.789c-2.381.142-4.762-.113-7.059-.737-5.527-1.474-10.516-5.102-13.635-10.46-3.09-5.357-3.713-11.481-2.238-17.008 1.502-5.556 5.102-10.545 10.459-13.635l12.473-7.2v-72.312h-58.849v49.975c0 4.139-3.345 7.484-7.512 7.484-4.139 0-7.483-3.345-7.483-7.484v-57.458c.005-.55.09-3.087 2.117-5.192 2.143-2.224 4.861-2.313 5.368-2.32zm-206.165 380.754c-4.139 0-7.483-3.345-7.483-7.484s3.345-7.512 7.483-7.512h18.964c4.139 0 7.483 3.373 7.483 7.512s-3.345 7.484-7.483 7.484zm97.768 0c-4.139 0-7.512-3.345-7.512-7.484s3.373-7.512 7.512-7.512h18.935c4.139 0 7.512 3.373 7.512 7.512s-3.373 7.484-7.512 7.484zm-48.898 0c-4.139 0-7.483-3.345-7.483-7.484s3.345-7.512 7.483-7.512h18.965c4.139 0 7.512 3.373 7.512 7.512s-3.373 7.484-7.512 7.484zm-180.371-165.999c0-4.139 3.373-7.512 7.512-7.512 4.14 0 7.513 3.374 7.513 7.512v18.566c0 4.139-3.373 7.512-7.513 7.512-4.139 0-7.512-3.373-7.512-7.512zm59.869 0c0-4.139 3.345-7.512 7.483-7.512 4.139 0 7.512 3.374 7.512 7.512v18.566c0 4.139-3.373 7.512-7.512 7.512s-7.483-3.373-7.483-7.512zm-29.934 0c0-4.139 3.373-7.512 7.512-7.512s7.483 3.374 7.483 7.512v18.566c0 4.139-3.345 7.512-7.483 7.512-4.139 0-7.512-3.373-7.512-7.512zm236.1-10.46h-20.467c-4.139 0-7.512-3.346-7.512-7.484 0-4.167 3.373-7.512 7.512-7.512h20.467v-25.398h-65.622v82.263h65.622zm15.024-40.394v89.746c0 4.139-3.373 7.512-7.512 7.512h-80.646c-4.139 0-7.483-3.373-7.483-7.512v-89.746h-193.951c-2.041 0-3.883.851-5.244 2.211-1.36 1.332-2.211 3.203-2.211 5.244v9.864h96.493c6.973 0 13.322 2.835 17.915 7.427s7.428 10.942 7.428 17.915v34.951c0 6.974-2.835 13.323-7.428 17.887-4.593 4.592-10.942 7.455-17.915 7.455h-96.493v9.864c0 2.041.851 3.884 2.211 5.244 1.361 1.361 3.203 2.212 5.244 2.212h331.261c2.041 0 3.884-.851 5.244-2.212 1.36-1.332 2.211-3.203 2.211-5.244v-112.82h-49.124zm-29.935-98.931c0 4.139-3.373 7.484-7.512 7.484s-7.484-3.345-7.484-7.484v-20.069h-70.441l17.377 74.07h53.064v-20.041c0-4.139 3.346-7.512 7.484-7.512s7.512 3.373 7.512 7.512v27.553c0 4.138-3.373 7.483-7.512 7.483h-66.474c-3.43.028-6.491-2.325-7.314-5.783l-20.778-88.669c-1.389-4.762 2.154-9.61 7.2-9.61h87.365c4.139 0 7.512 3.374 7.512 7.512v27.554zm-91.787 83.935h106.697v-133.91h-138.077zm252.202-165.998c-4.139 0-7.512-3.345-7.512-7.484 0-4.138 3.373-7.512 7.512-7.512h29.935c4.139 0 7.484 3.374 7.484 7.512 0 4.139-3.346 7.484-7.484 7.484zm22.421 32.088h-14.91v63.639l14.91-8.618zm0 328.766v-27.412l-14.91 8.618v18.794l7.455 23.074zm19.986-56.24c1.758-1.021 2.948-2.608 3.486-4.536.454-1.786.313-3.713-.566-5.414-1.162-1.899-2.523-3.146-4.705-3.713-1.871-.51-3.997-.312-5.67.708-15.818 9.128-31.636 18.256-47.452 27.383-1.73 1.049-2.949 2.608-3.459 4.564-.51 1.871-.311 3.912.709 5.669 1.049 1.757 2.579 2.919 4.563 3.458 1.871.51 3.969.312 5.642-.708 15.816-9.127 31.634-18.283 47.452-27.411zm-19.986-22.989v-13.039l-14.91 8.617v13.039zm19.617-41.585c1.984-1.332 3.203-2.353 3.855-4.791.454-1.786.313-3.713-.566-5.414-1.162-1.899-2.523-3.147-4.705-3.713-3.657-.992-4.763.425-7.428 1.729-15.081 8.702-30.161 17.405-45.241 26.107-2.013 1.361-3.231 2.24-3.912 4.819-.68 2.551-.113 3.912.964 6.095 2.522 3.77 6.944 4.054 10.658 1.928 15.449-8.93 30.897-17.859 46.375-26.76zm.397-65.084c1.758-1.02 2.948-2.665 3.458-4.535.482-1.871.284-3.912-.736-5.669-1.021-1.786-2.693-2.977-4.535-3.487-2.693-.709-4.338-.028-6.492 1.219-15.563 8.958-31.097 17.944-46.63 26.901-1.758 1.021-2.977 2.693-3.459 4.564-.652 2.381-.17 3.883.907 5.981 1.049 1.587 2.608 2.665 4.365 3.147 1.73.454 3.657.312 5.329-.539 15.931-9.185 31.861-18.398 47.793-27.582zm-34.924 37.418v13.011l14.91-8.589v-13.04zm34.896-102.247c1.758-1.02 2.948-2.608 3.486-4.564.482-1.871.284-3.968-.736-5.641-1.021-1.786-2.693-2.976-4.535-3.486-1.871-.482-3.997-.284-5.67.737-15.818 9.127-31.636 18.255-47.452 27.383-1.758 1.02-2.977 2.693-3.459 4.535-.51 1.899-.311 3.94.709 5.698s2.692 2.948 4.563 3.458c1.758.454 3.685.311 5.386-.567 15.902-9.185 31.804-18.369 47.708-27.553zm-34.896 37.446v12.983l14.91-8.618v-12.982zm-435.038 121.381h96.493c2.834 0 5.414-1.163 7.313-3.061 1.871-1.872 3.033-4.451 3.033-7.286v-34.951c0-2.835-1.162-5.415-3.033-7.286-1.898-1.899-4.478-3.061-7.313-3.061h-96.493zm155.171 67.21h101.368v-19.899h-101.368zm151.825 29.226c6.889 0 13.125 2.806 17.632 7.313s7.314 10.771 7.314 17.66-2.807 13.125-7.314 17.632-10.743 7.313-17.632 7.313c-6.888 0-13.124-2.806-17.659-7.313-4.508-4.507-7.314-10.743-7.314-17.632 0-6.888 2.807-13.153 7.314-17.66 4.535-4.507 10.771-7.313 17.659-7.313zm7.031 17.915c-1.815-1.786-4.28-2.92-7.03-2.92-2.749 0-5.244 1.134-7.058 2.92-1.786 1.814-2.92 4.309-2.92 7.058 0 2.75 1.134 5.216 2.92 7.03 1.814 1.815 4.309 2.92 7.058 2.92 2.75 0 5.216-1.105 7.03-2.92 1.814-1.814 2.92-4.28 2.92-7.03-.001-2.749-1.106-5.244-2.92-7.058zm-209.314-17.915c6.889 0 13.126 2.806 17.633 7.313 4.535 4.507 7.313 10.771 7.313 17.66s-2.778 13.125-7.313 17.632c-4.507 4.507-10.744 7.313-17.633 7.313-6.888 0-13.124-2.806-17.659-7.313-4.508-4.507-7.285-10.743-7.285-17.632 0-6.888 2.777-13.153 7.285-17.66 4.535-4.507 10.771-7.313 17.659-7.313zm7.03 17.915c-1.786-1.786-4.28-2.92-7.03-2.92-2.749 0-5.244 1.134-7.029 2.92-1.814 1.814-2.92 4.309-2.92 7.058 0 2.75 1.106 5.216 2.92 7.03 1.785 1.815 4.28 2.92 7.029 2.92 2.75 0 5.244-1.105 7.03-2.92 1.814-1.814 2.921-4.28 2.921-7.03 0-2.749-1.106-5.244-2.921-7.058z"/></g></svg>