<svg height="512pt" viewBox="0 -61 512.001 512" width="512pt" xmlns="http://www.w3.org/2000/svg"><path d="m512 194.496094c-.003906-7.386719-4.355469-14.109375-11.089844-17.132813l-38.9375-17.480469 38.941406-17.480468c6.734376-3.023438 11.085938-9.75 11.085938-17.132813 0-7.386719-4.351562-14.109375-11.089844-17.136719l-161.15625-72.339843c-.132812-.0625-.265625-.125-.398437-.179688l-75.660157-33.960937c-4.890624-2.203125-10.496093-2.199219-15.386718-.003906l.003906-.003907-237.226562 106.488281c-6.734376 3.027344-11.085938 9.75-11.085938 17.136719 0 7.382813 4.351562 14.109375 11.089844 17.136719l38.9375 17.476562-38.9375 17.480469c-6.734375 3.023438-11.089844 9.746094-11.089844 17.132813-.00390625 7.386718 4.351562 14.109375 11.089844 17.136718l40.054687 17.980469-40.058593 17.984375c-6.734376 3.023438-11.085938 9.75-11.085938 17.132813 0 7.386719 4.351562 14.109375 11.089844 17.136719l237.21875 106.484374c2.445312 1.101563 5.070312 1.648438 7.695312 1.648438 2.621094 0 5.242188-.550781 7.683594-1.644531l237.226562-106.492188c6.734376-3.023437 11.085938-9.75 11.085938-17.132812 0-7.386719-4.351562-14.109375-11.089844-17.136719l-40.054687-17.980469 40.058593-17.980469c6.734376-3.023437 11.085938-9.75 11.085938-17.136718zm-332.9375-128.882813 40.78125 18.308594-43.824219 19.675781-40.191406-18.574218zm77.40625 34.753907 44.351562 19.910156-44.355468 20.5-44.351563-20.5zm120.171875-15.132813-39.726563 18.359375-43.820312-19.671875 40.3125-18.097656zm-155.933594 72.066406-50.835937 23.496094-46.285156-20.777344 52.253906-23.457031zm35.757813 16.523438 49.855468 23.042969-50.320312 22.589843-49.851562-22.375zm86.132812 6.761719-50.378906-23.285157 44.875-20.738281 51.785156 23.25zm82.910156-37.21875-52.320312-23.488282 39.726562-18.363281 52.914063 23.753906zm-169.507812-112.289063 40.777344 18.304687-40.308594 18.097657-40.777344-18.308594zm-156.449219 70.230469 40.191407 18.574218-52.78125 23.695313-40.789063-18.308594zm366.277344 163.421875-209.828125 94.191406-209.828125-94.191406 41.601563-18.671875 160.546874 72.066406c2.441407 1.09375 5.058594 1.644531 7.679688 1.640625 2.621094 0 5.242188-.546875 7.6875-1.644531l160.539062-72.0625zm-209.828125 23.957031-209.828125-94.191406 40.480469-18.171875 161.65625 72.566406c2.445312 1.097656 5.070312 1.648437 7.695312 1.648437 2.621094 0 5.242188-.550781 7.683594-1.648437l161.660156-72.566406 40.480469 18.171875zm0 0"/></svg>