<svg id="Layer_1" enable-background="new 0 0 509.924 509.924" height="512" viewBox="0 0 509.924 509.924" width="512" xmlns="http://www.w3.org/2000/svg"><g><path d="m314.962 180.168h30v135h-30z"/><path d="m314.962 345.168h30v30h-30z"/><path d="m254.962 285.168h30v165h-30z"/><path d="m447.074 245.316-42.112 41.084v-211.232c0-22.312-17.206-42.248-48.448-56.135-53.808-24.967-149.296-24.967-203.104 0-31.242 13.887-48.448 33.822-48.448 56.135v75.592l-42.112-41.084-62.85 64.426 104.962 102.388v215.711c87.424 23.413 214.288 23.025 300 0v-80.07l104.962-102.391zm-281.48-198.867c46.183-21.548 132.553-21.548 178.736 0 13.137 5.837 34.153 18.564 30.091 32.284-7.818 26.413-84.463 50.45-162.133 38.196-50.226-7.883-77.326-27.4-77.326-41.762 0-9.315 11.737-20.321 30.632-28.718zm-30.632 364.449v-147.052l-92.538-90.271 20.951-21.475 71.587 69.838v-100.563c17.423 11.401 39.532 18.664 60 22.894v167.84c0 7.639-2.975 14.82-8.375 20.221-1.816 2.416-18.858 14.729-21.342 40.078-.605 6.185.602 12.518-4.551 20.852-6.366 10.293-15.299 11.671-25.732 17.638zm240-11.412v68.531c-79.693 16.107-160.307 16.107-240 0v-23.578c19.821-11.414 38.238-14.365 51.248-35.402 5.726-9.26 8.752-19.914 8.752-30.809 0-15.221 10.939-22.164 12.837-24.684 11.067-11.068 17.163-25.783 17.163-41.435v-163.354c47.226 4.528 110.807-1.708 150-27.39v236.213l71.587-69.838 20.951 21.475z"/></g></svg>