<?xml version="1.0" encoding="iso-8859-1"?>
<!-- Generator: Adobe Illustrator 18.0.0, SVG Export Plug-In . SVG Version: 6.00 Build 0)  -->
<!DOCTYPE svg PUBLIC "-//W3C//DTD SVG 1.1//EN" "http://www.w3.org/Graphics/SVG/1.1/DTD/svg11.dtd">
<svg version="1.1" id="Capa_1" xmlns="http://www.w3.org/2000/svg" xmlns:xlink="http://www.w3.org/1999/xlink" x="0px" y="0px"
	 viewBox="0 0 392.014 392.014" style="enable-background:new 0 0 392.014 392.014;" xml:space="preserve">
<g>
	<path d="M386.461,174.269c0,0-59.538-148.366-59.576-148.429c-0.649-1.214-1.638-2.253-2.929-2.923l-12.902-6.696
		c-3.133-1.626-6.988-0.666-8.99,2.243l-58.49,84.938H97.441c-11.074,0-20.083,9.009-20.083,20.083v67.419H66.006
		c-11.073,0-20.082,9.009-20.082,20.082v85.779H39.53C17.733,296.765,0,314.498,0,336.294v0.758
		c0,21.796,17.733,39.528,39.53,39.528h222.703c21.797,0,39.529-17.732,39.529-39.528v-0.758c0-21.796-17.732-39.529-39.529-39.529
		h-0.313l43.504-176.356l49.227,61.877l-57.536,29.669c-3.436,1.772-4.785,5.993-3.014,9.429
		c8.933,17.331,26.603,28.098,46.112,28.098c8.194,0,16.398-1.997,23.726-5.775C389.214,230.674,399.247,199.607,386.461,174.269z
		 M310.09,31.493l2.525,1.311l-63.921,259.127v-6.66c0-5.598-2.146-10.703-5.659-14.537c3.513-3.833,5.659-8.938,5.659-14.536
		v-18.265c0-3.866-3.134-7-7-7h-5.025v-88.459h15.583c2.189,0,4.252-1.024,5.575-2.768c1.324-1.744,1.756-4.006,1.167-6.115
		l-5.542-19.852L310.09,31.493z M152.568,152.488l70.101,29.654v48.792h-70.101V152.488z M59.924,277.664h142.632
		c3.866,0,7-3.134,7-7s-3.134-7-7-7H59.924v-52.678c0-3.354,2.729-6.082,6.082-6.082h18.353c3.866,0,7-3.134,7-7v-74.419
		c0-3.354,2.729-6.083,6.083-6.083h142.497l3.092,11.073h-97.462c-3.866,0-7,3.134-7,7v102.459c0,3.866,3.134,7,7,7h89.126v11.265
		c0,4.155-3.381,7.536-7.537,7.536c-3.866,0-7,3.134-7,7s3.134,7,7,7c4.156,0,7.537,3.381,7.537,7.537v11.493H59.924V277.664z
		 M287.763,336.294v0.758c0,14.076-11.452,25.528-25.529,25.528H39.53c-14.077,0-25.53-11.452-25.53-25.528v-0.758
		c0-14.077,11.453-25.529,25.53-25.529h222.703C276.311,310.765,287.763,322.218,287.763,336.294z M325.655,123.353l-2.82-70.165
		l48.341,120.577l-3.84,1.98L325.655,123.353z M357.523,231.263c-5.429,2.799-11.252,4.219-17.31,4.219
		c-11.866,0-22.799-5.453-29.89-14.586l66.127-34.1C381.561,203.893,373.946,222.794,357.523,231.263z"/>
	<path d="M27.839,336.673c0,3.866,3.134,7,7,7h232.085c3.866,0,7-3.134,7-7c0-3.866-3.134-7-7-7H34.839
		C30.973,329.673,27.839,332.806,27.839,336.673z"/>
</g>
<g>
</g>
<g>
</g>
<g>
</g>
<g>
</g>
<g>
</g>
<g>
</g>
<g>
</g>
<g>
</g>
<g>
</g>
<g>
</g>
<g>
</g>
<g>
</g>
<g>
</g>
<g>
</g>
<g>
</g>
</svg>
