<svg id="Outline" height="512" viewBox="0 0 512 512" width="512" xmlns="http://www.w3.org/2000/svg"><path d="m21.029 440.572a8 8 0 0 0 -3.685 11.866l16 24a8 8 0 0 0 8.76 3.28l79.732-21.745 6.319 31.6a8 8 0 0 0 7.845 6.427h32a8 8 0 0 0 7.951-8.883l-7.611-68.5 100.709-115.1 33.451 93.661c-10.093 8.173-31.7 28.615-30.442 53.006.906 17.547 13.087 32.649 36.2 44.886a8 8 0 0 0 7.486 0c23.115-12.237 35.3-27.339 36.2-44.886 1.235-23.912-19.51-44.031-29.836-52.513l11.473-22.945 47.687-13.626c18.211 20.577 37.107 30.968 56.316 30.967a53.917 53.917 0 0 0 6.842-.438c29.364-3.754 48.516-31.321 50.819-36.237a8 8 0 0 0 -.779-8.1c-12.838-17.617-27.04-28.79-42.212-33.211-12.654-3.686-25.691-2.692-38.749 2.956a88.409 88.409 0 0 0 -26.305 18.224 85.969 85.969 0 0 0 -6.708 7.415l-46.087-13.166-21.442-71.476 68.357-75.193 11.252 28.13a8 8 0 0 0 5.488 4.79l32 8a8 8 0 0 0 9.785-9.33l-15.16-75.8 68.972-68.972a8 8 0 0 0 2.188-7.226l-8-40a8 8 0 0 0 -13.5-4.088l-116.866 116.863-93.985-21.7c-1.388-11.037-6.7-33.826-27.065-50.518-22.937-18.8-57.258-23.8-102.014-14.85a8 8 0 0 0 -6.3 9.276c.282 1.547 7.266 38.136 39.991 59.673a89.07 89.07 0 0 0 29.869 12.5 53.479 53.479 0 0 0 -8.268 9.276c-20.413 29.144-5.868 70.124-5.239 71.854a8 8 0 0 0 7.406 5.265q1.077.015 2.168.016c25.818 0 58.447-6.566 72.11-36.7 5.567-12.276 6.61-25.592 5.511-36.989l44.275 34.438-94.682 94.681-88.456-14.74c-3.794-4.755-10.025-9.2-13.211-11.312-7.281-4.818-18.906-10.988-32.947-13.02-20.204-2.924-48.659 2.305-69.642 43.753a8.01 8.01 0 0 0 1.466 9.668l.025.028c7.417 8.117 26.833 26.206 52.468 26.206q2.163 0 4.387-.177c19.715-1.592 38.022-13.846 54.506-36.446l50.558 37.92-81.232 96zm413.876-112.593c15.073-.9 29.657 7.3 43.306 24.374-5.658 7.488-19.232 21.739-36.782 23.518-12.673 1.286-25.687-4.048-38.821-15.871h37.392a8 8 0 0 0 0-16h-38.785c7.934-7.172 19.908-15.2 33.69-16.021zm-257.845-224.15c-18.723-12.248-27.419-31.061-31.01-41.544 35.489-5.78 62.4-1.434 80.073 12.947 10.943 8.9 16.407 20.328 19.138 29.411l-41.308-23.6a8 8 0 1 0 -7.937 13.892l34.144 19.511q-3.489.728-6.755 1.665c-18.013.189-33.536-3.902-46.345-12.282zm73.472 71.01c-8.358 15.965-26.041 24.4-52.607 25.112a97.732 97.732 0 0 1 -2.687-15.206c-.981-10.41-.465-25.227 7.573-36.7 5.126-7.318 12.859-12.64 23.084-15.96q6.372-.183 13.063-.982l-21.63 32.445a8 8 0 1 0 13.313 8.875l23.944-35.916c2.022 10.212 2.632 25.565-4.053 38.332zm-186.452 98.292a8 8 0 0 0 7.91 6.869 7.914 7.914 0 0 0 1.142-.082l36.868-5.265c-11.524 13.1-23.565 20.235-35.936 21.235-6.473.525-22.8-.25-40.262-17.264 11.109-19.645 25.066-30.022 41.548-30.873 13.458-.687 26.381 5.1 35.03 10.686l-39.508 5.644a8 8 0 0 0 -6.792 9.05zm271.886 176.228c-.552 10.693-8.61 20.6-23.966 29.5-15.356-8.895-23.414-18.806-23.966-29.5-.607-11.759 7.766-23.594 15.966-32.036v22.677a8 8 0 0 0 16 0v-22.677c8.2 8.442 16.573 20.277 15.966 32.036zm-225.859-28.192 88-104a8 8 0 0 0 -1.307-11.567l-37.754-28.315 63.639 10.606a7.989 7.989 0 0 0 6.972-2.234l104-104a8 8 0 0 0 -.745-11.971l-43.386-33.747 68.674 15.856a8 8 0 0 0 7.457-2.138l109.43-109.43 4.228 21.144-68.972 68.972a8 8 0 0 0 -2.188 7.226l13.521 67.6-15.768-3.942-14.48-36.2a8 8 0 0 0 -13.348-2.41l-80 88a8 8 0 0 0 -1.743 7.68l24 80a8 8 0 0 0 5.465 5.393l29.078 8.31-29.08 8.308a8 8 0 0 0 -4.957 4.114l-7.616 15.232-33.695-94.345a8 8 0 0 0 -13.555-2.577l-112 128a8 8 0 0 0 -1.93 6.151l7.015 63.117h-16.5l-6.714-33.569a8 8 0 0 0 -9.949-6.149l-82.441 22.483-7.332-11 70.845-28.338a7.988 7.988 0 0 0 3.136-2.26z"/></svg>